<?xml version="1.0" encoding="utf-8"?>
<!-- Generator: Adobe Illustrator 24.1.0, SVG Export Plug-In . SVG Version: 6.00 Build 0)  -->
<svg version="1.1" id="Layer_1" xmlns="http://www.w3.org/2000/svg" xmlns:xlink="http://www.w3.org/1999/xlink" x="0px" y="0px"
	 viewBox="0 0 600 600" style="enable-background:new 0 0 600 600;" xml:space="preserve">
<g id="Fh521z.tif">
	<g>
		<path d="M323.97,36.8c8.09,0.59,16.17,1.29,24.26,1.76c19.83,1.16,39.59,3.09,58.57,9.51c73.17,24.72,118.36,76.03,134.17,154.28
			c3.03,15,3.09,30.65,4.51,46c0.09,0.98,0.12,1.98,0.2,3.43c7.18,0.38,14.3,0.77,21.41,1.12c7.57,0.37,15.15,0.53,22.7,1.12
			c2.51,0.2,5.08,1.16,7.36,2.34c1.26,0.65,2.89,2.68,2.67,3.7c-0.3,1.42-1.99,3.01-3.43,3.56c-2.26,0.87-4.81,1.26-7.24,1.28
			c-14.19,0.11-28.39,0.05-42.58,0.05c-1.23,0-2.45,0-3.23,0c-4.06,11.42-7.74,22.56-11.95,33.5
			c-15.51,40.29-36.52,76.95-68.11,105.99c-13.47,12.38-28.01,23.96-46.23,27.94c-6.95,1.52-14.56,1.56-21.61,0.46
			c-12.78-1.98-21.29-12.48-22.56-25.95c-0.86-9.14,0.31-17.86,4.27-26.24c7.92-16.78,15.58-33.7,23.31-50.58
			c0.76-1.67,1.37-3.43,1.86-5.21c1.84-6.67,0.38-10.87-5.26-14.66c-3.46-2.33-7.08-4.39-11.05-6.82c-0.89,1.34-1.74,2.55-2.53,3.81
			c-14.54,23.24-28.66,46.78-43.73,69.65c-12.72,19.31-28.8,35.33-48.63,46.91c-9.07,5.3-18.68,9.31-29.11,10.18
			c-16.33,1.36-28.56-8.74-31.4-25.48c-0.7-4.14-0.96-8.37-1.37-12.05c-3.72,3.52-7.4,7.12-11.2,10.57
			c-8.18,7.41-15.97,15.39-24.76,21.92c-9.91,7.36-21.39,11.48-33.85,9.81c-18.37-2.47-30.76-15.62-33.85-35.1
			c-2.38-15.06-0.76-29.84,4.98-43.69c15.53-37.52,40.57-65.28,78.51-78.82c13.01-4.64,26.52-6.39,40.29-4.1
			c10.81,1.8,20.05,6.79,27.9,14.66c1.27,1.27,2.56,2.52,3.8,3.74c4.25-4.12,8-8.36,12.34-11.8c3.55-2.81,7.6-5.26,11.8-6.81
			c6.33-2.35,11.36,1.89,9.69,8.55c-1.98,7.91-4.64,15.89-8.43,23.02c-9.92,18.64-23.42,34.61-37.56,49.87
			c-13.33,14.39-16.99,31.57-15.06,50.58c1.02,10.1,8.05,14.88,17.62,12.55c16.97-4.13,29.83-14.91,41.2-27.88
			c21.05-23.99,38.12-50.99,54.39-78.56c2.94-4.99,5.84-10.01,8.95-15.34c-1.35-1.16-2.61-2.21-3.84-3.3
			c-7.11-6.33-9.85-14.22-7.86-23.79c2.13-10.26,7.14-18.54,15.92-23.98c10.14-6.28,18.88-1.38,18.69,10.9
			c-0.08,5.4-1.8,10.9-3.49,16.11c-1.52,4.69-4.02,9.05-6.31,14.02c3.07,1.28,6.05,2.54,9.05,3.77c6,2.47,12.14,4.65,17.99,7.46
			c11.34,5.45,15.98,14.77,12.97,27.29c-1.68,6.99-4.34,13.83-7.38,20.33c-5.72,12.19-12.19,23.99-18.05,36.1
			c-4.04,8.35-5.77,17.22-3.77,26.59c1.26,5.93,4.4,8.8,10.23,9.32c7.4,0.67,14.17-1.37,20.62-4.92
			c13.73-7.57,24.25-18.98,35.02-30.35c21.98-23.2,30.64-52.66,37.5-82.99c2.72-12.05,4.15-24.41,6.26-37.17c-2.01,0-3.49,0-4.98,0
			c-20.12,0-40.24,0.04-60.36-0.03c-2.73-0.01-5.63-0.06-8.14-1c-1.94-0.72-4.51-2.67-4.77-4.41c-0.27-1.77,1.52-4.52,3.17-5.78
			c1.58-1.22,4.12-1.45,6.25-1.5c21.77-0.51,43.53-0.89,65.3-1.31c0.95-0.02,1.89-0.16,3.21-0.27c0-3.92,0.15-7.75-0.02-11.55
			c-1.35-29.32-5.67-58.07-18.27-84.65c-28-59.05-74.08-94.13-135.72-107.1c-27.09-5.7-54.05-0.94-80.55,5.85
			C170.49,79.87,79.08,169.3,47.43,275.59c-9.51,31.95-14.48,64.75-11.03,98.11c8.39,81.38,47.66,139.29,122.36,169.33
			c13.89,5.59,28.1,9.87,43.04,11.33c15.94,1.56,31.65-0.44,47.26-3.2c35.36-6.24,68.24-19.62,99.48-37.72
			c4.24-2.46,9.07-4.06,13.81-5.23c3.51-0.87,7.35-0.05,9.54,3.53c2.22,3.62,1.2,7.52-1.21,10.35c-3.04,3.57-6.39,7.44-10.41,9.44
			c-33.25,16.59-68.03,27.67-105.07,30.35c-15.83,1.14-31.56,1.11-47.35-0.69c-9.83-1.12-19.8-0.91-29.64-1.98
			c-37.63-4.08-72.17-16.83-102.35-40.88c-39.82-31.72-63.51-73.7-72.48-124.77c-1.2-6.85-1.81-13.82-2.74-20.72
			c-0.11-0.79-0.52-1.54-0.8-2.31c0-12.87,0-25.74,0-38.61c0.31-1.2,0.77-2.38,0.9-3.6c2.81-24.72,7.26-49.13,16.28-72.26
			c33.49-85.82,89.72-149.79,170.79-189.43c27.47-13.43,56.1-23.28,86.37-27.4c6.12-0.83,12.24-1.62,18.36-2.42
			C303.02,36.8,313.5,36.8,323.97,36.8z M154.28,398.24c0.7,3.72,1.42,11.03,3.54,17.87c2.47,7.99,9.55,11.44,17.49,9.91
			c7.91-1.52,14.95-4.93,20.7-10.8c10.01-10.22,20.09-20.38,29.72-30.97c4.3-4.73,8.35-10.05,11.17-15.81
			c9.11-18.59,18.45-37,30.02-54.11c0.92-1.35,1.65-3.65,1.19-5.06c-3.59-10.92-9.87-19.38-21.01-22.91
			c-12.46-3.95-23.92-0.86-34.84,5.53c-15.1,8.84-26.5,21.64-35.95,36.51C163.49,348.55,155.23,370.31,154.28,398.24z"/>
	</g>
</g>
</svg>
