<?xml version="1.0" encoding="utf-8"?>
<!-- Generator: Adobe Illustrator 24.0.3, SVG Export Plug-In . SVG Version: 6.00 Build 0)  -->
<svg version="1.1" id="Layer_1" xmlns="http://www.w3.org/2000/svg" xmlns:xlink="http://www.w3.org/1999/xlink" x="0px" y="0px"
	 viewBox="0 0 1224 792" style="enable-background:new 0 0 1224 792;" xml:space="preserve">
<g id="Fh521z.tif">
	<g>
		<path d="M586.8,158.01c7.59,0.56,15.17,1.23,22.77,1.68c18.61,1.1,37.15,2.94,54.97,9.04c68.67,23.51,111.08,72.29,125.93,146.69
			c2.85,14.26,2.9,29.14,4.23,43.74c0.09,0.94,0.11,1.88,0.19,3.26c6.74,0.36,13.42,0.73,20.1,1.06c7.1,0.35,14.22,0.5,21.31,1.07
			c2.36,0.19,4.77,1.11,6.9,2.22c1.18,0.62,2.71,2.55,2.51,3.52c-0.28,1.35-1.87,2.86-3.22,3.39c-2.12,0.83-4.51,1.2-6.79,1.22
			c-13.32,0.1-26.64,0.05-39.96,0.05c-1.15,0-2.3,0-3.03,0c-3.81,10.86-7.27,21.46-11.22,31.85
			c-14.55,38.31-34.27,73.17-63.92,100.77c-12.64,11.77-26.29,22.78-43.38,26.56c-6.53,1.44-13.67,1.48-20.28,0.44
			c-12-1.88-19.98-11.87-21.17-24.68c-0.81-8.69,0.29-16.98,4.01-24.95c7.44-15.96,14.63-32.04,21.88-48.09
			c0.72-1.59,1.29-3.27,1.75-4.96c1.73-6.34,0.35-10.34-4.94-13.94c-3.25-2.21-6.65-4.17-10.37-6.48c-0.83,1.27-1.64,2.43-2.38,3.63
			c-13.64,22.1-26.9,44.48-41.04,66.23c-11.94,18.36-27.03,33.59-45.64,44.6c-8.51,5.04-17.53,8.85-27.32,9.68
			c-15.32,1.29-26.81-8.31-29.47-24.23c-0.66-3.94-0.9-7.96-1.28-11.46c-3.49,3.34-6.94,6.77-10.52,10.05
			c-7.67,7.04-14.99,14.64-23.24,20.84c-9.3,7-20.07,10.92-31.77,9.32c-17.24-2.35-28.87-14.85-31.77-33.37
			c-2.24-14.32-0.71-28.37,4.67-41.54c14.57-35.68,38.07-62.07,73.68-74.95c12.21-4.41,24.89-6.08,37.82-3.9
			c10.15,1.71,18.82,6.46,26.18,13.94c1.19,1.21,2.41,2.4,3.57,3.56c3.98-3.92,7.51-7.95,11.59-11.22c3.33-2.67,7.14-5,11.07-6.48
			c5.94-2.23,10.66,1.79,9.1,8.13c-1.86,7.52-4.36,15.11-7.92,21.89c-9.31,17.73-21.98,32.91-35.25,47.42
			c-12.51,13.69-15.95,30.02-14.14,48.09c0.96,9.61,7.56,14.14,16.54,11.93c15.92-3.93,27.99-14.18,38.67-26.51
			c19.76-22.81,35.78-48.48,51.05-74.7c2.76-4.74,5.48-9.52,8.4-14.59c-1.27-1.1-2.45-2.1-3.6-3.13
			c-6.67-6.02-9.25-13.52-7.38-22.62c2-9.75,6.7-17.63,14.94-22.8c9.52-5.97,17.72-1.31,17.54,10.36
			c-0.08,5.13-1.69,10.36-3.28,15.31c-1.43,4.46-3.77,8.6-5.92,13.33c2.88,1.22,5.68,2.41,8.49,3.58
			c5.63,2.35,11.39,4.42,16.89,7.09c10.65,5.18,15,14.04,12.17,25.95c-1.58,6.64-4.07,13.15-6.93,19.33
			c-5.37,11.59-11.44,22.81-16.94,34.33c-3.79,7.94-5.41,16.37-3.54,25.28c1.18,5.64,4.12,8.37,9.6,8.87
			c6.94,0.63,13.29-1.3,19.35-4.68c12.89-7.2,22.76-18.05,32.87-28.85c20.63-22.06,28.76-50.07,35.19-78.91
			c2.56-11.46,3.9-23.21,5.88-35.34c-1.88,0-3.28,0-4.67,0c-18.88,0-37.77,0.04-56.65-0.03c-2.57-0.01-5.29-0.06-7.64-0.95
			c-1.82-0.69-4.23-2.54-4.48-4.19c-0.25-1.69,1.43-4.3,2.97-5.5c1.49-1.16,3.87-1.38,5.87-1.43c20.43-0.48,40.86-0.84,61.29-1.25
			c0.89-0.02,1.78-0.15,3.01-0.26c0-3.73,0.14-7.37-0.02-10.99c-1.26-27.88-5.32-55.22-17.15-80.49
			c-26.28-56.14-69.53-89.5-127.38-101.83c-25.43-5.42-50.73-0.89-75.6,5.56C442.76,198.96,356.96,284,327.26,385.06
			c-8.93,30.38-13.59,61.56-10.36,93.28c7.88,77.38,44.73,132.44,114.84,161.01c13.04,5.31,26.37,9.39,40.39,10.77
			c14.96,1.48,29.71-0.42,44.36-3.04c33.18-5.93,64.05-18.65,93.36-35.86c3.98-2.33,8.51-3.86,12.96-4.98
			c3.29-0.83,6.89-0.05,8.95,3.35c2.08,3.44,1.13,7.15-1.13,9.84c-2.85,3.4-6,7.07-9.77,8.98c-31.21,15.77-63.85,26.31-98.61,28.85
			c-14.85,1.09-29.62,1.06-44.44-0.66c-9.23-1.07-18.58-0.87-27.82-1.88c-35.31-3.88-67.73-16-96.06-38.87
			c-37.37-30.16-59.61-70.07-68.02-118.63c-1.13-6.52-1.7-13.14-2.57-19.7c-0.1-0.76-0.49-1.47-0.75-2.2c0-12.24,0-24.47,0-36.71
			c0.29-1.14,0.72-2.27,0.85-3.43c2.64-23.51,6.81-46.71,15.28-68.71c31.43-81.6,84.21-142.42,160.29-180.12
			c25.78-12.77,52.65-22.14,81.06-26.05c5.74-0.79,11.49-1.54,17.23-2.3C567.14,158.01,576.97,158.01,586.8,158.01z M427.54,501.68
			c0.66,3.54,1.34,10.49,3.32,16.99c2.32,7.59,8.96,10.88,16.42,9.42c7.43-1.45,14.03-4.68,19.42-10.27
			c9.39-9.72,18.85-19.38,27.89-29.45c4.03-4.5,7.83-9.56,10.48-15.03c8.55-17.68,17.31-35.18,28.17-51.45
			c0.86-1.29,1.55-3.47,1.12-4.81c-3.37-10.38-9.26-18.42-19.72-21.78c-11.69-3.75-22.45-0.82-32.7,5.25
			c-14.18,8.4-24.87,20.58-33.74,34.71C436.18,454.43,428.43,475.12,427.54,501.68z"/>
	</g>
</g>
</svg>
